<svg width="24" height="26" viewBox="0 0 24 26" fill="none" xmlns="http://www.w3.org/2000/svg">
<path d="M17.3245 16.7285C15.7922 18.9168 13.7958 20.4451 11.8277 21.1618C9.85787 21.8791 7.96412 21.7717 6.55103 20.7822C5.13795 19.7927 4.38932 18.0499 4.38962 15.9535C4.38991 13.8591 5.14326 11.4603 6.67552 9.27201C8.20778 7.08371 10.2042 5.55536 12.1723 4.83874C14.1422 4.12146 16.0359 4.22886 17.449 5.21831C18.8621 6.20776 19.6107 7.95057 19.6104 10.047C19.6101 12.1414 18.8568 14.5402 17.3245 16.7285Z" stroke="black"/>
<path d="M7.69751 21L7.75701 20.7025C8.37026 17.6362 9.87741 14.8201 12.0885 12.609L12.2079 12.4896C12.8661 11.8315 13.4576 11.1099 13.9739 10.3355V10.3355C14.7847 9.11919 15.402 7.78447 15.8036 6.37894L16.1977 5.00003" stroke="black"/>
</svg>
