<svg width="11" height="22" viewBox="0 0 11 22" fill="none" xmlns="http://www.w3.org/2000/svg">
<path fill-rule="evenodd" clip-rule="evenodd" d="M4 12.1029C4.47528 11.9709 4.97877 11.9 5.5 11.9C6.02123 11.9 6.52472 11.9709 7 12.1029V2.1C7 1.3268 6.32843 0.7 5.5 0.7C4.67157 0.7 4 1.3268 4 2.1V12.1029ZM3.25 12.3715C1.47629 13.158 0.25 14.8453 0.25 16.8C0.25 19.5062 2.60051 21.7 5.5 21.7C8.3995 21.7 10.75 19.5062 10.75 16.8C10.75 14.8453 9.52371 13.158 7.75 12.3715V2.1C7.75 0.940202 6.74264 0 5.5 0C4.25736 0 3.25 0.940202 3.25 2.1V12.3715Z" fill="black"/>
<path d="M10 16.8001C10 19.1197 7.98528 21.0001 5.5 21.0001C3.01472 21.0001 1 19.1197 1 16.8001C1 14.4805 3.01472 12.6001 5.5 12.6001C7.98528 12.6001 10 14.4805 10 16.8001Z" fill="white"/>
<path d="M4 11.2H7V14H4V11.2Z" fill="white"/>
<path d="M9.25 16.8C9.25 18.733 7.57107 20.3 5.5 20.3C3.42893 20.3 1.75 18.733 1.75 16.8C1.75 14.8671 3.42893 13.3 5.5 13.3C7.57107 13.3 9.25 14.8671 9.25 16.8Z" fill="black"/>
<path d="M4.75 4.8999H6.25V14.6999H4.75V4.8999Z" fill="black"/>
</svg>
