<svg width="14" height="20" viewBox="0 0 14 20" fill="none" xmlns="http://www.w3.org/2000/svg">
<path d="M13.5 13.0232C13.5 16.5987 10.5914 19.5 7 19.5C3.40858 19.5 0.5 16.5987 0.5 13.0232C0.5 12.1679 0.814622 11.1252 1.35076 9.96495C1.88297 8.81317 2.61192 7.59032 3.39434 6.38548C3.99348 5.46287 4.61691 4.56137 5.20215 3.71508C5.38153 3.45569 5.55733 3.20149 5.72774 2.95345C6.23319 2.21774 6.69659 1.52888 7.05508 0.929506C7.18343 1.10593 7.31615 1.28774 7.45241 1.47442C8.52784 2.94772 9.82464 4.72427 10.9493 6.54984C11.6708 7.72094 12.3123 8.89817 12.7723 10.0116C13.2344 11.13 13.5 12.1528 13.5 13.0232Z" stroke="black"/>
<path d="M11.5 13.5C11.5 14.2273 11 17.5 7.5 17.5" stroke="black"/>
</svg>
